<?xml version="1.0" standalone="no"?>
<!DOCTYPE svg PUBLIC "-//W3C//DTD SVG 20010904//EN"
 "http://www.w3.org/TR/2001/REC-SVG-20010904/DTD/svg10.dtd">
<svg version="1.0" xmlns="http://www.w3.org/2000/svg"
 width="700.000000pt" height="700.000000pt" viewBox="0 0 700.000000 700.000000"
 preserveAspectRatio="xMidYMid meet">
<metadata>
Created by potrace 1.11, written by Peter Selinger 2001-2013
</metadata>
<g transform="translate(0.000000,700.000000) scale(0.100000,-0.100000)"
fill="#000000" stroke="none">
<path d="M767 5744 c-1 -1 -27 -4 -57 -7 -111 -10 -245 -75 -308 -150 -13 -15
-29 -24 -35 -20 -7 3 -9 3 -5 -2 4 -4 -1 -20 -11 -34 -35 -49 -79 -146 -90
-200 -14 -65 -15 -3563 -2 -3626 5 -22 14 -54 19 -72 6 -17 8 -34 4 -37 -3 -3
0 -6 7 -6 7 0 10 -4 7 -9 -4 -5 -3 -11 2 -13 15 -6 72 -99 67 -109 -3 -5 1 -6
9 -3 11 4 16 0 16 -10 0 -9 5 -16 11 -16 7 0 26 -15 44 -32 32 -34 38 -38 56
-38 5 0 7 -4 4 -10 -3 -5 0 -7 8 -4 8 3 21 -1 28 -8 8 -7 21 -14 29 -16 8 -2
16 -7 18 -12 2 -5 10 -6 18 -3 8 3 22 -3 32 -14 9 -10 13 -13 8 -6 -6 9 -3 13
8 13 9 0 16 -4 16 -9 0 -5 9 -7 20 -4 11 3 20 0 20 -6 0 -6 5 -11 11 -11 5 0
7 5 4 10 -9 14 8 12 24 -2 8 -7 11 -8 8 -2 -3 6 1 11 9 11 8 0 13 -6 10 -14
-4 -9 3 -8 21 4 15 10 24 13 21 7 -4 -6 -1 -11 7 -11 8 0 12 3 10 6 -2 4 39 6
91 6 71 0 93 -3 89 -13 -3 -7 6 -5 22 5 15 10 24 13 21 7 -4 -6 -1 -11 7 -11
8 0 12 3 10 7 -2 4 20 6 50 6 30 -1 55 -5 55 -11 0 -6 3 -6 8 0 9 14 95 13
104 0 5 -7 8 -6 8 1 0 5 11 10 24 10 15 0 22 -4 18 -11 -3 -5 2 -4 11 4 14 11
17 11 17 0 0 -9 3 -10 8 -4 10 14 53 15 45 1 -4 -6 1 -5 10 3 14 11 17 11 17
0 0 -9 3 -10 8 -4 10 14 53 15 45 1 -4 -6 1 -5 10 3 14 11 17 11 17 0 0 -9 3
-10 8 -4 10 14 53 15 45 1 -4 -6 1 -5 10 3 14 11 17 11 17 0 0 -9 3 -10 8 -4
10 14 53 15 45 1 -4 -6 1 -5 10 3 14 11 17 11 17 0 0 -9 3 -10 8 -4 10 14 53
15 45 1 -4 -6 1 -5 10 3 14 11 17 11 17 0 0 -9 3 -10 8 -4 10 14 53 15 45 1
-4 -6 1 -5 10 3 14 11 17 11 17 0 0 -9 3 -10 8 -4 11 16 124 14 118 -2 -4 -9
4 -7 21 4 15 10 24 13 21 7 -4 -6 -1 -11 7 -11 8 0 12 3 10 6 -2 4 39 6 91 6
71 0 93 -3 89 -13 -3 -7 6 -5 22 5 15 10 24 13 21 7 -4 -6 -1 -11 7 -11 8 0
12 3 10 6 -2 4 39 6 91 6 71 0 93 -3 89 -13 -3 -7 6 -5 22 5 15 10 24 13 21 7
-4 -6 -1 -11 7 -11 8 0 12 3 10 7 -2 4 18 6 45 6 28 -1 50 -5 50 -11 0 -5 5
-3 10 5 9 13 10 13 10 0 0 -9 3 -11 8 -5 4 6 20 10 35 11 20 0 26 -4 22 -14
-5 -13 -3 -13 10 -2 23 19 78 20 93 1 9 -12 12 -12 10 -2 -2 8 6 14 20 16 12
1 22 -2 22 -7 0 -5 6 -6 13 -1 6 4 27 8 45 8 24 0 31 -3 27 -14 -5 -12 -3 -12
10 -1 20 16 77 21 86 7 4 -5 13 -6 20 -1 20 12 159 11 159 -1 0 -5 5 -3 10 5
8 13 10 13 10 -2 0 -9 4 -20 10 -23 6 -3 7 1 4 9 -3 9 -2 16 2 17 5 0 19 2 32
3 12 2 22 -2 22 -8 0 -7 3 -7 8 -1 10 14 123 14 114 0 -3 -5 2 -4 11 4 14 11
17 11 17 0 0 -11 2 -11 10 1 8 13 10 13 10 -2 0 -9 4 -20 10 -23 5 -3 7 0 4 8
-3 8 2 17 11 21 11 4 14 2 9 -7 -5 -8 -2 -7 9 2 14 11 17 11 17 0 0 -11 2 -11
10 1 9 13 10 13 10 0 0 -9 3 -11 8 -5 17 24 38 13 33 -18 -1 -5 3 -6 9 -2 6 3
8 11 5 16 -4 5 -3 9 2 10 4 0 18 2 30 3 12 1 20 -1 17 -6 -7 -11 10 -10 22 2
7 7 17 5 30 -6 10 -8 14 -13 8 -10 -12 6 -29 -23 -19 -32 3 -3 5 0 5 6 0 16
37 15 43 0 2 -7 -3 -22 -12 -33 -16 -20 -16 -20 7 0 22 18 24 19 33 2 6 -9 22
-29 37 -44 15 -15 26 -31 25 -35 -2 -4 4 -5 12 -2 13 5 20 -6 16 -28 0 -4 5
-5 13 -2 8 3 20 -3 27 -13 8 -11 22 -22 32 -26 11 -4 15 -12 11 -18 -4 -7 -3
-9 3 -6 6 4 28 -7 49 -24 22 -17 59 -43 84 -57 44 -26 57 -35 83 -58 7 -6 17
-9 24 -7 6 2 18 -5 25 -16 8 -12 17 -18 20 -16 9 10 58 -17 51 -28 -3 -6 -2
-7 4 -4 6 4 29 -2 51 -13 23 -11 48 -20 57 -20 8 0 15 -4 15 -8 0 -5 6 -9 13
-10 23 -1 56 -11 76 -21 11 -6 26 -11 35 -11 8 0 27 -5 41 -10 24 -9 26 -12
14 -28 -13 -16 -13 -16 7 0 16 14 23 15 34 5 8 -8 11 -8 6 0 -4 7 1 9 14 6 17
-5 18 -8 8 -22 -12 -15 -11 -15 7 0 14 11 28 14 45 8 14 -4 40 -7 58 -8 24 -1
31 -5 26 -13 -6 -10 -5 -10 8 -1 8 7 17 10 20 7 3 -3 26 -7 49 -8 26 -2 43 -8
41 -15 -1 -6 2 -11 8 -11 5 0 10 6 10 13 0 8 17 11 60 9 36 -2 58 -8 54 -14
-3 -5 -13 -7 -23 -3 -13 5 -13 4 -4 -6 10 -10 16 -9 30 3 18 15 45 19 150 21
28 1 50 4 48 7 -2 3 6 6 18 6 22 1 67 8 137 21 19 4 43 6 53 5 9 0 15 3 12 9
-4 5 1 9 9 9 9 0 16 -5 16 -12 0 -7 5 -6 13 4 12 15 61 33 52 19 -2 -4 2 -8 9
-8 8 0 12 7 8 15 -3 10 -1 13 6 8 6 -3 14 -1 17 4 5 7 12 5 20 -7 13 -17 13
-17 12 0 -2 14 11 24 46 38 32 13 46 15 41 7 -4 -7 3 -3 15 10 12 12 30 22 41
22 10 0 20 3 22 8 2 4 29 20 61 36 31 16 60 33 63 37 3 5 10 7 15 4 5 -4 9 -2
9 3 0 5 14 15 31 23 18 7 46 25 63 41 17 15 34 28 38 28 4 0 21 13 39 30 18
16 36 27 41 24 4 -3 8 3 8 12 0 16 1 16 15 -2 13 -17 14 -17 9 -1 -5 13 6 30
41 62 26 25 51 42 56 40 4 -3 11 0 15 6 4 8 3 9 -4 5 -25 -15 -10 8 32 50 24
23 41 46 37 50 -3 4 2 4 11 1 12 -4 15 -2 11 9 -3 8 1 14 11 14 9 0 15 3 14 8
-5 14 37 72 49 68 7 -3 10 1 7 8 -3 7 2 20 10 29 9 9 16 20 16 26 0 6 5 11 10
11 6 0 10 6 10 14 0 8 8 22 18 32 9 10 17 22 17 28 1 6 7 10 14 8 7 -1 10 2 6
7 -6 10 21 71 31 71 3 0 2 -6 -2 -13 -5 -8 -2 -8 9 2 18 15 23 26 7 16 -17
-11 -11 14 17 68 15 29 26 56 25 61 -2 4 2 13 7 20 5 6 19 40 31 76 12 36 27
71 33 79 10 12 9 13 -1 7 -11 -7 -12 -4 -4 10 5 11 13 38 17 61 4 24 14 47 23
53 10 5 12 10 5 10 -7 0 -13 5 -13 11 0 5 4 8 8 5 5 -3 9 1 9 9 0 8 -5 11 -10
8 -6 -4 -7 -1 -2 6 4 7 9 31 11 54 3 23 10 45 17 49 9 6 9 8 -1 8 -7 0 -10 4
-7 10 3 5 6 32 7 60 0 31 4 50 11 50 8 0 8 3 2 8 -6 4 -10 49 -10 102 1 52 -2
109 -6 126 -3 17 -2 39 4 49 7 13 6 16 -2 11 -7 -5 -11 3 -12 21 0 15 -2 37
-5 48 -2 11 -7 36 -9 55 -3 19 -10 49 -15 65 -5 17 -14 50 -20 75 -16 58 -29
97 -47 138 -8 18 -12 36 -8 41 3 5 2 11 -3 13 -8 3 -92 169 -92 182 0 4 5 4
12 0 7 -4 8 -3 4 5 -4 6 -11 9 -16 6 -12 -8 -33 33 -24 47 4 7 3 8 -5 4 -7 -4
-18 5 -29 24 -9 17 -34 54 -54 82 -21 28 -35 55 -32 60 3 5 2 7 -3 6 -4 -2 -9
0 -11 4 -1 4 -19 25 -40 46 -20 22 -57 60 -81 86 -24 25 -48 46 -52 46 -4 0
-10 9 -14 19 -3 11 -15 23 -25 26 -13 4 -18 14 -16 33 1 15 -1 35 -6 45 -6 11
-5 17 3 17 6 0 8 7 5 16 -5 14 -7 161 -5 425 0 52 -1 102 -3 110 -2 8 3 13 11
11 11 -2 12 0 3 11 -13 15 -14 29 -12 177 1 58 0 112 -2 120 -2 9 3 14 11 12
12 -3 12 0 2 12 -8 9 -11 24 -8 35 2 10 1 25 -4 32 -4 7 -5 18 -1 24 9 14 9
26 1 51 -4 12 -5 25 -2 28 8 7 6 132 -1 145 -4 5 -2 12 3 16 7 4 7 15 1 30 -9
24 -6 29 14 26 5 -1 4 4 -2 11 -6 8 -11 23 -11 33 0 11 -1 37 -3 58 -2 20 0
37 4 37 4 0 3 12 -2 28 -5 15 -11 41 -13 58 -5 35 -57 157 -69 162 -4 2 -8 10
-8 17 0 7 -7 15 -15 19 -8 3 -15 11 -16 18 0 13 -107 105 -144 123 -46 24
-133 54 -169 60 -33 4 -4974 13 -4979 9z"/>
<path d="M6749 1963 c-13 -16 -12 -17 4 -4 16 13 21 21 13 21 -2 0 -10 -8 -17
-17z"/>
<path d="M6713 1855 c0 -8 4 -12 9 -9 5 3 6 10 3 15 -9 13 -12 11 -12 -6z"/>
<path d="M6646 1698 c3 -5 10 -6 15 -3 13 9 11 12 -6 12 -8 0 -12 -4 -9 -9z"/>
<path d="M6531 1491 c-8 -5 -9 -11 -3 -15 5 -3 12 1 16 9 6 17 6 18 -13 6z"/>
<path d="M6506 1418 c3 -4 9 -8 15 -8 5 0 9 4 9 8 0 5 -7 9 -15 9 -8 0 -12 -4
-9 -9z"/>
<path d="M6435 1359 c-3 -4 2 -6 10 -5 21 3 28 13 10 13 -9 0 -18 -4 -20 -8z"/>
<path d="M535 1300 c-3 -5 -1 -10 4 -10 6 0 11 5 11 10 0 6 -2 10 -4 10 -3 0
-8 -4 -11 -10z"/>
<path d="M1115 1271 c-3 -5 -2 -12 3 -15 5 -3 9 1 9 9 0 17 -3 19 -12 6z"/>
<path d="M1213 1265 c0 -8 4 -12 9 -9 5 3 6 10 3 15 -9 13 -12 11 -12 -6z"/>
<path d="M1315 1271 c-3 -5 -2 -12 3 -15 5 -3 9 1 9 9 0 17 -3 19 -12 6z"/>
<path d="M1395 1271 c-3 -5 -2 -12 3 -15 5 -3 9 1 9 9 0 17 -3 19 -12 6z"/>
<path d="M1475 1271 c-3 -5 -2 -12 3 -15 5 -3 9 1 9 9 0 17 -3 19 -12 6z"/>
<path d="M1555 1271 c-3 -5 -2 -12 3 -15 5 -3 9 1 9 9 0 17 -3 19 -12 6z"/>
<path d="M1635 1271 c-3 -5 -2 -12 3 -15 5 -3 9 1 9 9 0 17 -3 19 -12 6z"/>
<path d="M1715 1271 c-3 -5 -2 -12 3 -15 5 -3 9 1 9 9 0 17 -3 19 -12 6z"/>
<path d="M1795 1271 c-3 -5 -2 -12 3 -15 5 -3 9 1 9 9 0 17 -3 19 -12 6z"/>
<path d="M1875 1271 c-3 -5 -2 -12 3 -15 5 -3 9 1 9 9 0 17 -3 19 -12 6z"/>
<path d="M3133 1265 c0 -8 4 -12 9 -9 5 3 6 10 3 15 -9 13 -12 11 -12 -6z"/>
<path d="M3395 1271 c-3 -5 -2 -12 3 -15 5 -3 9 1 9 9 0 17 -3 19 -12 6z"/>
<path d="M3672 1264 c-7 -8 -8 -14 -3 -14 10 0 25 19 20 25 -2 1 -10 -3 -17
-11z"/>
<path d="M6415 1269 c-4 -6 -5 -12 -2 -15 2 -3 7 2 10 11 7 17 1 20 -8 4z"/>
<path d="M3335 1260 c3 -5 8 -10 11 -10 2 0 4 5 4 10 0 6 -5 10 -11 10 -5 0
-7 -4 -4 -10z"/>
<path d="M3628 1253 c7 -3 16 -2 19 1 4 3 -2 6 -13 5 -11 0 -14 -3 -6 -6z"/>
<path d="M880 1246 c0 -2 8 -10 18 -17 15 -13 16 -12 3 4 -13 16 -21 21 -21
13z"/>
<path d="M2610 1246 c0 -2 7 -7 16 -10 8 -3 12 -2 9 4 -6 10 -25 14 -25 6z"/>
<path d="M2850 1246 c0 -2 7 -7 16 -10 8 -3 12 -2 9 4 -6 10 -25 14 -25 6z"/>
<path d="M3510 1236 c7 -7 13 -7 20 0 6 6 3 10 -10 10 -13 0 -16 -4 -10 -10z"/>
<path d="M6370 1219 c0 -5 5 -7 10 -4 6 3 10 8 10 11 0 2 -4 4 -10 4 -5 0 -10
-5 -10 -11z"/>
<path d="M3695 1211 c-3 -5 -2 -12 3 -15 5 -3 9 1 9 9 0 17 -3 19 -12 6z"/>
<path d="M3756 1178 c3 -5 10 -6 15 -3 13 9 11 12 -6 12 -8 0 -12 -4 -9 -9z"/>
<path d="M6310 1166 c0 -2 7 -7 16 -10 8 -3 12 -2 9 4 -6 10 -25 14 -25 6z"/>
<path d="M6286 1122 c-3 -5 1 -9 9 -9 8 0 12 4 9 9 -3 4 -7 8 -9 8 -2 0 -6 -4
-9 -8z"/>
<path d="M6233 1055 c0 -8 4 -12 9 -9 5 3 6 10 3 15 -9 13 -12 11 -12 -6z"/>
<path d="M6149 1017 c6 -8 7 -18 3 -22 -4 -5 -1 -5 6 -1 10 6 10 11 1 22 -6 8
-14 14 -16 14 -3 0 0 -6 6 -13z"/>
<path d="M6110 979 c0 -5 5 -7 10 -4 6 3 10 8 10 11 0 2 -4 4 -10 4 -5 0 -10
-5 -10 -11z"/>
<path d="M6026 962 c-3 -5 1 -9 9 -9 8 0 12 4 9 9 -3 4 -7 8 -9 8 -2 0 -6 -4
-9 -8z"/>
<path d="M4090 926 c0 -2 7 -7 16 -10 8 -3 12 -2 9 4 -6 10 -25 14 -25 6z"/>
<path d="M5956 921 c-3 -5 2 -15 12 -22 15 -12 16 -12 5 2 -7 9 -10 19 -6 22
3 4 4 7 0 7 -3 0 -8 -4 -11 -9z"/>
<path d="M5999 913 c-12 -16 -12 -17 2 -6 9 7 20 9 24 5 5 -4 5 -1 1 6 -9 16
-11 15 -27 -5z"/>
<path d="M5916 894 c-8 -20 -8 -24 2 -24 4 0 8 9 9 20 2 24 -3 26 -11 4z"/>
<path d="M4190 871 c0 -6 4 -13 10 -16 6 -3 7 1 4 9 -7 18 -14 21 -14 7z"/>
<path d="M5841 856 c-8 -10 -9 -16 -1 -21 6 -4 9 -1 8 7 -2 7 3 12 10 10 8 -1
11 2 7 8 -8 13 -10 13 -24 -4z"/>
<path d="M5915 840 c3 -5 8 -10 11 -10 2 0 4 5 4 10 0 6 -5 10 -11 10 -5 0 -7
-4 -4 -10z"/>
<path d="M4175 821 c-3 -5 -2 -12 3 -15 5 -3 9 1 9 9 0 17 -3 19 -12 6z"/>
<path d="M5827 819 c7 -7 15 -10 18 -7 3 3 -2 9 -12 12 -14 6 -15 5 -6 -5z"/>
<path d="M5886 822 c-3 -5 1 -9 9 -9 8 0 12 4 9 9 -3 4 -7 8 -9 8 -2 0 -6 -4
-9 -8z"/>
<path d="M5741 797 c-13 -21 -12 -21 5 -5 10 10 16 20 13 22 -3 3 -11 -5 -18
-17z"/>
<path d="M5800 800 c-9 -6 -10 -10 -3 -10 6 0 15 5 18 10 8 12 4 12 -15 0z"/>
<path d="M5693 769 c-2 -23 3 -25 10 -4 4 8 3 16 -1 19 -4 3 -9 -4 -9 -15z"/>
<path d="M5666 763 c-6 -14 -5 -15 5 -6 7 7 10 15 7 18 -3 3 -9 -2 -12 -12z"/>
<path d="M5785 760 c-3 -6 1 -7 9 -4 18 7 21 14 7 14 -6 0 -13 -4 -16 -10z"/>
<path d="M4395 751 c-3 -5 -2 -12 3 -15 5 -3 9 1 9 9 0 17 -3 19 -12 6z"/>
<path d="M4455 749 c-4 -6 -5 -12 -2 -15 2 -3 7 2 10 11 7 17 1 20 -8 4z"/>
<path d="M5594 720 c0 -13 4 -16 10 -10 7 7 7 13 0 20 -6 6 -10 3 -10 -10z"/>
<path d="M4520 726 c0 -2 7 -9 15 -16 13 -11 14 -10 9 4 -5 14 -24 23 -24 12z"/>
<path d="M5517 715 c-4 -8 -3 -16 1 -19 4 -3 9 4 9 15 2 23 -3 25 -10 4z"/>
<path d="M4455 700 c-3 -5 -1 -10 4 -10 6 0 11 5 11 10 0 6 -2 10 -4 10 -3 0
-8 -4 -11 -10z"/>
<path d="M4616 678 c3 -5 10 -6 15 -3 13 9 11 12 -6 12 -8 0 -12 -4 -9 -9z"/>
<path d="M5315 680 c-3 -5 -1 -10 4 -10 6 0 11 5 11 10 0 6 -2 10 -4 10 -3 0
-8 -4 -11 -10z"/>
<path d="M5475 681 c-3 -5 -2 -12 3 -15 5 -3 9 1 9 9 0 17 -3 19 -12 6z"/>
<path d="M5399 678 c-5 -18 -6 -38 -1 -34 7 8 12 36 6 36 -2 0 -4 -1 -5 -2z"/>
<path d="M4727 659 c7 -7 15 -10 18 -7 3 3 -2 9 -12 12 -14 6 -15 5 -6 -5z"/>
<path d="M4876 662 c-3 -5 1 -9 9 -9 8 0 12 4 9 9 -3 4 -7 8 -9 8 -2 0 -6 -4
-9 -8z"/>
<path d="M5256 661 c-3 -5 2 -15 12 -22 15 -12 16 -12 5 2 -7 9 -10 19 -6 22
3 4 4 7 0 7 -3 0 -8 -4 -11 -9z"/>
<path d="M5287 659 c7 -7 15 -10 18 -7 3 3 -2 9 -12 12 -14 6 -15 5 -6 -5z"/>
<path d="M5340 660 c-9 -6 -10 -10 -3 -10 6 0 15 5 18 10 8 12 4 12 -15 0z"/>
<path d="M5430 659 c0 -5 5 -7 10 -4 6 3 10 8 10 11 0 2 -4 4 -10 4 -5 0 -10
-5 -10 -11z"/>
<path d="M5173 645 c0 -7 7 -11 15 -7 11 4 13 2 7 -9 -8 -12 -6 -12 8 0 9 7
17 16 17 19 0 3 -3 2 -6 -1 -4 -3 -14 -2 -24 3 -12 6 -17 5 -17 -5z"/>
<path d="M4825 640 c-3 -6 1 -7 9 -4 18 7 21 14 7 14 -6 0 -13 -4 -16 -10z"/>
<path d="M4966 642 c-3 -5 1 -9 9 -9 8 0 12 4 9 9 -3 4 -7 8 -9 8 -2 0 -6 -4
-9 -8z"/>
<path d="M5070 639 c0 -5 5 -7 10 -4 6 3 10 8 10 11 0 2 -4 4 -10 4 -5 0 -10
-5 -10 -11z"/>
<path d="M4915 631 c-3 -5 -2 -12 3 -15 5 -3 9 1 9 9 0 17 -3 19 -12 6z"/>
<path d="M5293 625 c0 -8 4 -12 9 -9 5 3 6 10 3 15 -9 13 -12 11 -12 -6z"/>
<path d="M4955 611 c-3 -5 -2 -12 3 -15 5 -3 9 1 9 9 0 17 -3 19 -12 6z"/>
</g>
</svg>
