<?xml version="1.0" standalone="no"?>
<!DOCTYPE svg PUBLIC "-//W3C//DTD SVG 20010904//EN"
 "http://www.w3.org/TR/2001/REC-SVG-20010904/DTD/svg10.dtd">
<svg version="1.0" xmlns="http://www.w3.org/2000/svg"
 width="700.000000pt" height="700.000000pt" viewBox="0 0 700.000000 700.000000"
 preserveAspectRatio="xMidYMid meet">
<metadata>
Created by potrace 1.11, written by Peter Selinger 2001-2013
</metadata>
<g transform="translate(0.000000,700.000000) scale(0.100000,-0.100000)"
fill="#000000" stroke="none">
<path d="M975 6451 c-197 -56 -359 -231 -394 -425 -8 -42 -11 -803 -11 -2505
0 -2714 -5 -2506 68 -2645 66 -126 184 -223 332 -272 52 -18 129 -19 1538 -22
815 -1 1482 0 1482 2 0 5 -117 577 -125 612 -5 21 -2 21 228 27 250 6 411 26
609 73 545 130 912 449 1023 887 74 292 55 585 -50 814 -96 208 -265 379 -480
486 -80 40 -138 61 -310 111 -42 12 -47 15 -28 21 60 19 219 97 284 140 102
67 243 212 303 313 92 155 136 328 136 541 0 659 -479 1072 -1325 1141 -66 5
-390 10 -720 10 l-600 0 -68 338 c-38 185 -71 345 -73 355 -5 16 -55 17 -882
16 -800 0 -882 -2 -937 -18z m2140 -1571 c96 -475 178 -866 180 -869 3 -2 5
195 5 439 l0 443 348 -6 c355 -6 434 -13 557 -49 145 -42 234 -110 283 -216
24 -51 27 -68 27 -172 0 -103 -3 -121 -26 -170 -62 -133 -182 -215 -384 -261
-30 -7 -199 -14 -428 -18 l-379 -6 -155 -418 c-85 -231 -153 -420 -151 -422 2
-2 242 -6 533 -10 556 -7 668 -15 800 -55 234 -72 345 -218 345 -453 0 -234
-133 -403 -375 -477 -154 -47 -213 -50 -972 -50 l-711 0 -30 -77 c-16 -43 -91
-243 -167 -446 l-138 -367 -624 0 c-343 0 -622 3 -620 8 3 4 426 1011 941
2238 996 2376 958 2286 962 2281 2 -2 82 -392 179 -867z"/>
</g>
</svg>
